<svg width="450" height="578" viewBox="0 0 450 578" fill="none" xmlns="http://www.w3.org/2000/svg">
<path d="M350.714 131.222C350.714 164.698 337.469 196.804 313.893 220.475C290.317 244.146 258.342 257.444 225 257.444C191.658 257.444 159.683 244.146 136.107 220.475C112.531 196.804 99.2857 164.698 99.2857 131.222C99.2857 97.746 112.531 65.6409 136.107 41.9696C159.683 18.2984 191.658 5 225 5C258.342 5 290.317 18.2984 313.893 41.9696C337.469 65.6409 350.714 97.746 350.714 131.222V131.222ZM225 352.111C166.652 352.111 110.695 375.383 69.4365 416.808C28.1785 458.233 5 514.417 5 573H445C445 514.417 421.821 458.233 380.563 416.808C339.305 375.383 283.348 352.111 225 352.111V352.111Z" stroke="black" stroke-width="10" stroke-linecap="round" stroke-linejoin="round"/>
</svg>
